<svg xmlns="http://www.w3.org/2000/svg" viewBox="0 0 64 64" role="img" aria-label="YouTube doodle icon">
  <path d="M12 24c0-4.8 3.2-8.4 7.7-8.8c7.9-.8 16.7-.8 24.6 0c4.5.4 7.7 4 7.7 8.8v16c0 4.8-3.2 8.4-7.7 8.8c-7.9.8-16.7.8-24.6 0C15.2 48.4 12 44.8 12 40z" fill="#ff4500"/>
  <path d="M26 21.5c-3.4.2-6 .9-8.1 2.1" fill="none" stroke="#ffffff" stroke-width="2" stroke-linecap="round"/>
  <path d="M27 26l13 7l-13 7z" fill="#ffffff"/>
  <path d="M17 43.5c3.8 1.2 8.8 1.8 15 1.8s11.2-.6 15-1.8" fill="none" stroke="#ffffff" stroke-width="2" stroke-linecap="round"/>
</svg>
